<svg width="1010" height="1024" viewBox="0 0 1010 1024" fill="none" xmlns="http://www.w3.org/2000/svg">
<mask id="mask0_8_2" style="mask-type:luminance" maskUnits="userSpaceOnUse" x="5" y="-16" width="1027" height="1184">
<path d="M693.26 356.236C695.244 738.011 3.56686 676.829 5.5498 1058.49C5.74647 1096.35 15.013 1132.96 32.1825 1167.67L1031.04 1162.48L1028.36 647.473L1024.92 -15.0001L280.748 -11.1337C524.055 53.8675 692.415 193.552 693.26 356.236Z" fill="white"/>
</mask>
<g mask="url(#mask0_8_2)">
<path d="M6.11775 1167.81L1031.04 1162.48L1024.92 -15.0001L0.000147831 -9.67506L6.11775 1167.81Z" fill="#521935" fill-opacity="0.2"/>
</g>
<mask id="mask1_8_2" style="mask-type:luminance" maskUnits="userSpaceOnUse" x="199" y="-16" width="833" height="1183">
<path d="M886.725 355.23C888.709 737.006 197.032 675.824 199.015 1057.49C199.211 1095.34 208.478 1131.95 225.648 1166.67L1031.04 1162.48L1028.36 647.473L1024.92 -15.0001L474.214 -12.1389C717.521 52.8623 885.88 192.547 886.725 355.23Z" fill="white"/>
</mask>
<g mask="url(#mask1_8_2)">
<path d="M199.582 1166.8L1031.04 1162.48L1024.92 -15.0001L193.465 -10.6802L199.582 1166.8Z" fill="#521935" fill-opacity="0.2"/>
</g>
<mask id="mask2_8_2" style="mask-type:luminance" maskUnits="userSpaceOnUse" x="548" y="-16" width="484" height="1181">
<path d="M575.374 1164.85L1031.04 1162.48L1028.36 647.473L1024.92 -15.0001L548.623 -12.5255C941.646 92.474 1030.19 289.507 923.932 519.88C810.107 766.652 463.457 943.437 575.374 1164.85Z" fill="white"/>
</mask>
<g mask="url(#mask2_8_2)">
<path d="M464.61 1165.42L1034.73 1162.46L1028.61 -15.0193L458.492 -12.0572L464.61 1165.42Z" fill="#521935" fill-opacity="0.2"/>
</g>
<mask id="mask3_8_2" style="mask-type:luminance" maskUnits="userSpaceOnUse" x="585" y="-16" width="447" height="1180">
<path d="M768.839 1163.84L1031.04 1162.48L1028.36 647.473L1024.92 -15.0001L585.828 -12.7188C978.852 92.2807 1067.4 289.313 961.137 519.687C847.313 766.458 656.922 942.432 768.839 1163.84Z" fill="white"/>
</mask>
<g mask="url(#mask3_8_2)">
<path d="M591.946 1164.76L1071.93 1162.27L1065.82 -15.2126L585.828 -12.7188L591.946 1164.76Z" fill="#521935" fill-opacity="0.2"/>
</g>
</svg>
